<svg viewBox="0 0 512 512" xmlns="http://www.w3.org/2000/svg"><g id="Layer_2" data-name="Layer 2"><g id="Layer_1-2" data-name="Layer 1"><g id="_96" data-name="96"><circle id="background" cx="256" cy="256" fill="#fd4760" r="256"/><path d="m324.7 256 49.07-49.07a48.58 48.58 0 0 0 0-68.7 48.58 48.58 0 0 0 -68.7 0l-49.07 49.07-49.07-49.07a48.58 48.58 0 0 0 -68.7 0 48.58 48.58 0 0 0 0 68.7l49.07 49.07-49.07 49.07a48.58 48.58 0 0 0 0 68.7 48.58 48.58 0 0 0 68.7 0l49.07-49.07 49.07 49.07a48.58 48.58 0 0 0 68.7 0 48.58 48.58 0 0 0 0-68.7z" fill="#fff"/></g></g></g></svg>